<svg xmlns="http://www.w3.org/2000/svg" viewBox="0 0 100 100">
  <rect x="0" y="0" width="100" height="100" rx="22" fill="#000000" />
  <g fill="none" stroke-linecap="round">
    <path d="M50.00 11.00 L53.46 11.32 L56.87 11.92 L60.21 12.80 L63.44 13.95 L66.56 15.36 L69.54 17.02 L72.35 18.91 L74.99 21.01 L77.43 23.32 L79.67 25.81 L81.68 28.47 L83.45 31.27 L84.98 34.20 L86.26 37.23 L87.27 40.35 L88.02 43.52 L88.50 46.73 L88.71 49.95 L88.66 53.17 L88.34 56.35 L87.75 59.49 L86.92 62.55 L85.83 65.51 L84.51 68.37 L82.97 71.09 L81.21 73.66 L79.25 76.06 L77.11 78.28 L74.81 80.31 L72.36 82.13 L69.77 83.74 L67.07 85.11 L64.29 86.26 L61.43 87.16 L58.52 87.82 L55.58 88.23 L52.63 88.39 L49.69 88.31 L46.78 87.99 L43.93 87.43 L41.14 86.64 L38.45 85.63 L35.86 84.40 L33.39 82.96 L31.06 81.34 L28.89 79.54 L26.89 77.57 L25.06 75.45 L23.43 73.20 L22.00 70.84 L20.77 68.38 L19.76 65.84 L18.97 63.23 L18.40 60.59 L18.05 57.92 L17.93 55.24 L18.03 52.58 L18.35 49.95 L18.88 47.37 L19.63 44.86 L20.57 42.43 L21.71 40.11 L23.03 37.89 L24.51 35.81 L26.16 33.87 L27.96 32.08 L29.88 30.46 L31.92 29.01 L34.07 27.75 L36.29 26.67 L38.59 25.79 L40.94 25.10" stroke="#6b0000" stroke-width="11" />
    <path d="M40.94 25.10 L43.32 24.62 L45.72 24.34 L48.12 24.26 L50.50 24.37 L52.85 24.69 L55.15 25.20 L57.39 25.89 L59.55 26.76 L61.62 27.80 L63.58 29.00 L65.42 30.35 L67.13 31.84 L68.70 33.46 L70.12 35.20 L71.39 37.03 L72.49 38.95 L73.42 40.94 L74.17 42.99 L74.75 45.08 L75.15 47.19 L75.37 49.32 L75.42 51.45 L75.28 53.55 L74.97 55.62 L74.50 57.65 L73.86 59.62 L73.06 61.51 L72.12 63.32 L71.04 65.02 L69.82 66.63 L68.49 68.11 L67.05 69.47 L65.51 70.69 L63.89 71.77 L62.20 72.71 L60.44 73.49 L58.64 74.12 L56.81 74.60 L54.96 74.92 L53.10 75.08 L51.25 75.08 L49.43 74.94 L47.63 74.64 L45.88 74.20 L44.19 73.61 L42.56 72.90 L41.01 72.05 L39.56 71.09 L38.19 70.02 L36.94 68.85 L35.79 67.58 L34.77 66.24 L33.86 64.83 L33.09 63.36 L32.45 61.85 L31.94 60.30 L31.56 58.72 L31.32 57.14 L31.22 55.56 L31.25 53.98 L31.41 52.43 L31.69 50.91 L32.10 49.44 L32.63 48.02 L33.26 46.66 L34.00 45.37 L34.84 44.16 L35.77 43.04 L36.78 42.01 L37.86 41.07 L39.01 40.24 L40.20 39.52" stroke="#cc1800" stroke-width="7.5" />
    <path d="M40.20 39.52 L41.45 38.90 L42.72 38.40 L44.02 38.01 L45.33 37.73 L46.65 37.57 L47.96 37.52 L49.26 37.58 L50.53 37.75 L51.77 38.02 L52.97 38.39 L54.12 38.86 L55.22 39.41 L56.25 40.05 L57.21 40.76 L58.10 41.54 L58.90 42.39 L59.63 43.29 L60.27 44.23 L60.81 45.22 L61.27 46.23 L61.63 47.26 L61.91 48.31 L62.08 49.36 L62.17 50.41 L62.17 51.45 L62.08 52.47 L61.91 53.47 L61.65 54.43 L61.32 55.36 L60.92 56.23 L60.45 57.06 L59.92 57.84 L59.33 58.55 L58.70 59.20 L58.02 59.79 L57.31 60.31 L56.56 60.75 L55.80 61.13 L55.01 61.43 L54.22 61.66 L53.43 61.81 L52.64 61.90 L51.85 61.91 L51.09 61.86 L50.34 61.74 L49.63 61.57 L48.94 61.33 L48.29 61.04 L47.68 60.70 L47.12 60.32 L46.60 59.90 L46.13 59.44 L45.71 58.96 L45.35 58.45 L45.04 57.92 L44.78 57.38 L44.58 56.83 L44.43 56.28 L44.34 55.73 L44.29 55.19 L44.30 54.66 L44.36 54.15 L44.46 53.66 L44.60 53.19 L44.77 52.75 L44.99 52.34 L45.23 51.96 L45.50 51.62 L45.79 51.32 L46.11 51.06 L46.43 50.83 L46.76 50.65" stroke="#ff8c2e" stroke-width="4.5" />
  </g>
  <line x1="10" y1="54.5" x2="90" y2="54.5" stroke="#f4f4f5" stroke-width="1.6" opacity="0.32" />
</svg>
